# xmcd
#
# Track frame offsets:
# 150
# 19875
# 39300
# 61500
# 78150
# 96025
# 114300
# 132150
# 143625
# 159600
# 175875
# 193640
# 206550
# 218325
# 234525
# 249038
# 260925
# 284400
# 306375
# 320025
#
# Disc length: 4561 seconds
#
#
# Revision: 5
# Processed by: cddbd v1.5.2PL0 Copyright (c) Steve Scherf et al.
# Submitted via: FreeRIP 2.96 
#
DISCID=1211cf14
DTITLE=Muddy Waters - The Gold Collection
DYEAR=1900
DGENRE=Blues
TTITLE0=Long Distance Call
TTITLE1=Where's My Woman
TTITLE2=Honky Tonk
TTITLE3=Off The Wall
TTITLE4=Blow Wind Blow
TTITLE5=Howli'n Wolf
TTITLE6=Can't Get No Grindin'
TTITLE7=Trouble No More
TTITLE8=Soon Forgotten
TTITLE9=Corinne, Corinne
TTITLE10=Garbage Man
TTITLE11=I'm Your Hoochie Coochie Man
TTITLE12=Baby Please Don't Go
TTITLE13=Manish Boy
TTITLE14=Everything Gonna Be Alright
TTITLE15=Got My Mojo Working
TTITLE16=Nine Below Zero
TTITLE17=What's The Matter With The Mill?
TTITLE18=Honey Bee
TTITLE19=Goin' Home
EXTD=ID3G:   0
EXTT0=
EXTT1=
EXTT2=
EXTT3=
EXTT4=
EXTT5=
EXTT6=
EXTT7=
EXTT8=
EXTT9=
EXTT10=
EXTT11=
EXTT12=
EXTT13=
EXTT14=
EXTT15=
EXTT16=
EXTT17=
EXTT18=
EXTT19=
PLAYORDER=
